# Blender v2.79 (sub 0) OBJ File: ''
# www.blender.org
mtllib rock_medium.mtl
o Cube.001
v -3.032817 -0.182365 5.813719
v -3.118264 0.445761 5.754829
v -3.113971 -0.167494 4.991107
v -3.140795 0.296107 4.833530
v -2.035892 -0.502415 6.017008
v -1.812534 0.683329 5.845983
v -2.158700 -0.446250 5.021102
v -2.146285 0.678681 4.769065
v -2.803874 0.944186 5.684571
v -2.951162 0.987297 5.248620
v -2.302007 1.268996 5.185372
v -2.296220 1.216294 5.770398
v -2.791159 1.291258 5.491496
v -2.791159 1.291258 5.294081
v -2.523520 1.459661 5.240947
v -2.523520 1.459661 5.482278
v -2.866996 0.742531 5.857000
v -3.078220 0.689829 5.067600
v -2.209618 0.923445 5.857000
v -2.128431 0.937134 5.067600
v -2.737877 0.048541 6.141149
v -2.791208 0.401851 6.119821
v -2.264432 0.273874 6.237389
v -2.264432 -0.273874 6.237389
v -2.575688 -0.357591 4.937723
v -2.557632 0.443858 4.802687
v -2.472236 -0.502415 6.017008
v -2.472236 0.502415 6.017008
v -2.506757 0.940538 5.179102
v -2.512442 1.071505 5.703476
v -2.599798 1.345156 5.239618
v -2.636780 1.427760 5.475820
v -2.572444 0.689829 5.067600
v -2.495082 0.742531 5.857000
v -2.481317 -0.145898 6.119821
v -2.481317 0.401851 6.119821
v -3.078651 0.053263 5.753554
v -3.114521 0.016000 4.905392
v -2.133956 0.051343 4.789159
v -1.812534 -0.135266 5.845983
v -2.774945 0.239104 6.092490
v -2.264432 -0.073735 6.237389
v -2.481317 0.054241 6.119821
v -2.520694 0.080752 4.856813
v -3.030679 -0.262108 5.538486
v -3.126216 0.392942 5.468533
v -2.035892 -0.502415 5.662362
v -1.903002 0.548342 5.307619
v -2.855858 0.959401 5.530706
v -2.298263 1.234895 5.563919
v -2.791159 1.291258 5.421820
v -2.523520 1.459661 5.397102
v -2.126805 0.974950 5.578388
v -2.941545 0.723930 5.578388
v -2.636780 1.427760 5.404301
v -2.469569 -0.494507 5.639136
v -1.835830 0.025370 5.307619
v -3.073575 -0.041583 5.482176
vn -0.9934 -0.1038 0.0489
vn -0.1053 -0.0795 -0.9913
vn 0.9934 0.0497 -0.1038
vn -0.1605 0.9070 0.3892
vn -0.0088 -0.9999 -0.0108
vn -0.8706 0.4230 0.2514
vn -0.4141 0.4417 0.7959
vn -0.3127 0.2962 0.9025
vn -0.0404 0.4814 -0.8756
vn 0.8633 0.5046 -0.0073
vn -0.6624 0.7491 0.0000
vn -0.1906 0.1628 -0.9681
vn 0.6747 0.7369 0.0423
vn -0.9484 0.2127 0.2350
vn 0.8946 0.4122 -0.1724
vn -0.1057 0.6165 -0.7802
vn 0.0439 0.3309 0.9427
vn -0.8282 0.5581 0.0504
vn -0.0621 -0.0553 0.9965
vn 0.6547 0.0000 0.7559
vn -0.7507 0.0226 0.6603
vn -0.2507 -0.5441 0.8007
vn -0.4271 -0.3898 0.8159
vn -0.4766 0.0000 0.8791
vn -0.2548 0.2101 0.9439
vn -0.4079 0.6813 -0.6078
vn -0.1502 0.1122 -0.9823
vn -0.2711 0.9625 0.0000
vn -0.2662 0.3099 -0.9127
vn -0.1251 0.5271 0.8405
vn -0.2784 0.4601 0.8431
vn -0.4602 -0.8828 0.0937
vn 0.0019 0.6950 0.7190
vn -0.0309 -0.1951 -0.9803
vn -0.1141 -0.2478 -0.9621
vn -0.7294 -0.1082 0.6754
vn 0.6602 -0.0337 0.7503
vn 0.0793 0.1306 0.9883
vn 0.8725 -0.4765 -0.1085
vn -0.0277 -0.3148 -0.9488
vn -0.9924 -0.0716 0.1000
vn -0.9827 -0.1798 0.0445
vn 0.8595 -0.3824 -0.3391
vn -0.3517 -0.9285 -0.1188
vn -0.5947 0.7593 -0.2641
vn -0.9550 0.2812 0.0939
vn 0.7130 0.6969 -0.0779
vn -0.9089 0.3446 0.2348
vn 0.6983 0.7146 0.0407
vn -0.5073 0.8104 -0.2931
vn 0.8708 0.4448 0.2093
vn -0.9164 0.2993 0.2658
vn -0.0964 -0.9874 -0.1256
vn 0.8920 0.0538 -0.4489
vn -0.9933 -0.1103 0.0343
usemtl Rock
s off
f 58//1 46//1 4//1 38//1
f 44//2 26//2 8//2 39//2
f 57//3 48//3 6//3 40//3
f 28//4 2//4 22//4 36//4
f 56//5 47//5 5//5 27//5
f 54//6 17//6 9//6 49//6
f 30//7 12//7 16//7 32//7
f 34//8 19//8 12//8 30//8
f 33//9 18//9 10//9 29//9
f 53//10 20//10 11//10 50//10
f 55//11 51//11 13//11 32//11
f 29//12 10//12 14//12 31//12
f 50//13 11//13 15//13 52//13
f 49//14 9//14 13//14 51//14
f 48//15 8//15 20//15 53//15
f 26//16 4//16 18//16 33//16
f 28//17 6//17 19//17 34//17
f 46//18 2//18 17//18 54//18
f 43//19 36//19 22//19 41//19
f 40//20 6//20 23//20 42//20
f 37//21 1//21 21//21 41//21
f 27//22 5//22 24//22 35//22
f 1//23 27//23 35//23 21//23
f 42//24 23//24 36//24 43//24
f 2//25 28//25 34//25 17//25
f 8//26 26//26 33//26 20//26
f 11//27 29//27 31//27 15//27
f 52//28 55//28 32//28 16//28
f 20//29 33//29 29//29 11//29
f 17//30 34//30 30//30 9//30
f 9//31 30//31 32//31 13//31
f 45//32 56//32 27//32 1//32
f 6//33 28//33 36//33 23//33
f 38//34 4//34 26//34 44//34
f 3//35 38//35 44//35 25//35
f 24//24 42//24 43//24 35//24
f 2//36 37//36 41//36 22//36
f 5//37 40//37 42//37 24//37
f 35//38 43//38 41//38 21//38
f 47//39 57//39 40//39 5//39
f 25//40 44//40 39//40 7//40
f 45//41 58//41 38//41 3//41
f 1//42 37//42 58//42 45//42
f 7//43 39//43 57//43 47//43
f 3//44 25//44 56//44 45//44
f 15//45 31//45 55//45 52//45
f 4//46 46//46 54//46 18//46
f 6//47 48//47 53//47 19//47
f 10//48 49//48 51//48 14//48
f 12//49 50//49 52//49 16//49
f 31//50 14//50 51//50 55//50
f 19//51 53//51 50//51 12//51
f 18//52 54//52 49//52 10//52
f 25//53 7//53 47//53 56//53
f 39//54 8//54 48//54 57//54
f 37//55 2//55 46//55 58//55
