# Blender v2.79 (sub 0) OBJ File: ''
# www.blender.org
mtllib rock_big.mtl
o Cube
v 1.679885 -0.406753 -0.913730
v 1.602473 -0.277453 1.172511
v 0.080836 -0.220790 1.080576
v -0.346817 -0.475567 -0.790680
v 1.793608 0.480011 -0.760035
v 1.702247 0.217484 0.712645
v 0.064232 0.583907 0.979665
v -0.354062 0.706585 -0.538584
v 2.361105 -0.356591 -0.274257
v -1.000000 -0.211043 -0.101284
v 2.379040 0.425170 -0.060915
v -0.655857 0.613948 -0.220058
v 2.294546 -0.301550 0.512512
v 2.216295 0.239218 0.117377
v -1.000000 -0.211043 0.258088
v -0.806188 0.379866 0.317299
v 1.377548 -0.382802 -1.000000
v 1.316112 -0.423542 1.248381
v 1.409306 0.323829 -0.756129
v 1.445545 0.386522 0.735662
v 1.788198 0.886384 -0.321769
v 1.974052 -0.838115 -0.487179
v 1.809829 0.831890 0.281368
v 1.974052 -0.838115 0.643984
v 1.086914 -0.382802 -1.000000
v 0.994547 -0.423542 1.248381
v 1.066838 0.383346 -0.944264
v 1.197106 0.386522 0.735662
v 1.214825 -0.838115 -0.487180
v 1.214825 -0.838115 0.643984
v 1.076136 0.839699 -0.426499
v 1.298979 0.719530 0.183158
v 0.465379 -0.551835 -0.795720
v 0.708393 -0.220790 1.080576
v 0.439160 0.785715 -0.791775
v 0.774012 0.656683 1.010133
v 0.481689 -0.838115 -0.487180
v 0.481689 -0.838115 0.643984
v 0.587585 0.794702 -0.185119
v 0.583454 0.847826 0.499924
v -0.056924 -0.551835 -0.795720
v 0.337280 -0.220790 1.080576
v -0.234196 0.806649 -0.603424
v 0.562691 0.679451 0.989283
v -0.394524 -0.838115 -0.487180
v -0.394524 -0.838115 0.643984
v -0.014899 0.857722 -0.169840
v 0.042848 0.976202 0.543711
v 1.696126 -0.022498 -0.686307
v 1.602473 -0.045167 1.172511
v -0.024372 0.164525 1.000515
v -0.337097 0.193633 -0.630083
v -0.853050 0.248819 -0.085526
v 2.226172 -0.015520 -0.139802
v -0.894792 0.083676 0.338149
v 2.243423 -0.049090 0.512512
v 1.409306 0.019947 -0.756129
v 1.316842 -0.051648 1.227304
v 1.093155 0.003584 -0.974012
v 1.014579 -0.051648 1.227304
v 0.485985 -0.093326 -0.861289
v 0.708393 0.133804 1.080576
v -0.096967 -0.091533 -0.869392
v 0.337280 0.133804 1.080576
vt 0.162746 0.000080
vt 0.999919 0.099533
vt 0.903961 0.647822
vt 0.000080 0.647822
vt 0.000000 0.000000
vt 0.000000 0.000000
vt 0.000000 0.000000
vt 0.000000 0.000000
vt 0.000000 0.000000
vt 0.000000 0.000000
vt 0.000000 0.000000
vt 0.000000 0.000000
vt 0.000000 0.000000
vt 0.000000 0.000000
vt 0.000000 0.000000
vt 0.000000 0.000000
vt 0.000000 0.000000
vt 0.000000 0.000000
vt 0.000000 0.000000
vt 0.000000 0.000000
vt 0.000000 0.000000
vt 0.000000 0.000000
vt 0.000000 0.000000
vt 0.000000 0.000000
vt 0.000000 0.000000
vt 0.000000 0.000000
vt 0.000000 0.000000
vt 0.000000 0.000000
vt 0.000000 0.000000
vt 0.000000 0.000000
vt 0.000000 0.000000
vt 0.000000 0.000000
vt 0.000000 0.000000
vt 0.000000 0.000000
vt 0.000000 0.000000
vt 0.000000 0.000000
vt 0.000000 0.000000
vt 0.000000 0.000000
vt 0.000000 0.000000
vt 0.000000 0.000000
vt 0.000000 0.000000
vt 0.000000 0.000000
vt 0.000000 0.000000
vt 0.000000 0.000000
vt 0.000000 0.000000
vt 0.000000 0.000000
vt 0.000000 0.000000
vt 0.000000 0.000000
vt 0.000000 0.000000
vt 0.000000 0.000000
vt 0.000000 0.000000
vt 0.000000 0.000000
vt 0.000000 0.000000
vt 0.000000 0.000000
vt 0.000000 0.000000
vt 0.000000 0.000000
vt 0.000000 0.000000
vt 0.000000 0.000000
vt 0.000000 0.000000
vt 0.000000 0.000000
vt 0.000000 0.000000
vt 0.000000 0.000000
vt 0.000000 0.000000
vt 0.000000 0.000000
vt 0.000000 0.000000
vt 0.000000 0.000000
vt 0.000000 0.000000
vt 0.000000 0.000000
vn -0.1369 0.1700 -0.9759
vn -0.5150 -0.1940 0.8350
vn -0.4436 0.6553 0.6114
vn 0.5243 0.6948 0.4923
vn -0.1138 0.1511 0.9819
vn -0.7236 0.1152 -0.6806
vn -0.3835 0.0606 -0.9215
vn -0.9195 0.3925 -0.0207
vn 0.7278 -0.1896 -0.6591
vn -0.4117 0.9113 0.0052
vn -0.6294 -0.4485 -0.6346
vn -0.6139 0.1966 0.7645
vn 0.9838 -0.1072 0.1440
vn -0.4968 0.8668 0.0433
vn -0.7194 -0.6946 -0.0000
vn 0.8187 -0.5725 0.0448
vn 0.6715 0.6654 0.3260
vn 0.5609 -0.3564 -0.7472
vn 0.3782 0.6811 -0.6269
vn 0.2748 0.4816 -0.8322
vn 0.3064 0.7298 0.6111
vn 0.6228 0.3735 0.6874
vn 0.5965 -0.3047 0.7426
vn 0.0000 -1.0000 0.0000
vn -0.1550 0.9729 0.1714
vn 0.0000 -0.7478 -0.6639
vn 0.2167 0.6212 -0.7531
vn 0.3161 0.2933 -0.9023
vn 0.0000 0.7465 0.6653
vn -0.1912 0.8174 0.5434
vn 0.0000 -0.8246 0.5656
vn 0.0860 0.9956 0.0370
vn -0.0082 -0.7429 -0.6693
vn 0.1503 0.9059 -0.3960
vn -0.2420 -0.0377 -0.9695
vn 0.3889 0.3882 0.8355
vn 0.4688 0.8071 0.3589
vn -0.2490 -0.6871 0.6826
vn 0.1575 0.9794 -0.1262
vn 0.0000 -0.7331 -0.6802
vn 0.0533 0.9957 -0.0763
vn 0.0070 -0.1497 -0.9887
vn -0.0292 0.1574 0.9871
vn 0.1958 0.9247 0.3265
vn 0.0000 -0.5774 0.8164
vn 0.0000 0.0000 1.0000
vn -0.4490 0.0383 0.8927
vn -0.1939 0.0659 -0.9788
vn 0.0000 0.0566 0.9984
vn 0.5266 0.0572 -0.8482
vn 0.2140 0.0338 0.9762
vn 0.1147 -0.1042 -0.9879
vn 0.9556 0.2931 0.0284
vn -0.6056 -0.0000 0.7958
vn 0.6216 0.4288 -0.6555
vn -0.9489 0.3151 0.0159
vn -0.5981 0.1348 -0.7900
vn -0.6836 0.2043 -0.7007
vn -0.1236 0.0894 0.9883
vn 0.7025 0.0741 0.7078
usemtl Rock
s off
f 35/1/1 61/2/1 63/3/1 43/4/1
usemtl Rock_NONE
f 46/5/2 42/6/2 3/7/2 15/8/2
f 48/9/3 16/10/3 7/11/3 44/12/3
f 56/13/4 14/14/4 6/15/4 50/16/4
f 64/17/5 44/12/5 7/11/5 51/18/5
f 53/19/6 12/20/6 8/21/6 52/22/6
f 63/23/7 41/24/7 4/25/7 52/22/7
f 55/26/8 16/10/8 12/20/8 53/19/8
f 49/27/9 5/28/9 11/29/9 54/30/9
f 43/31/10 8/21/10 12/20/10 47/32/10
f 41/24/11 45/33/11 10/34/11 4/25/11
f 51/18/12 7/11/12 16/10/12 55/26/12
f 54/30/13 11/29/13 14/14/13 56/13/13
f 47/32/14 12/20/14 16/10/14 48/9/14
f 45/33/15 46/5/15 15/8/15 10/34/15
f 9/35/16 13/36/16 24/37/16 22/38/16
f 11/29/17 21/39/17 23/40/17 14/14/17
f 1/41/18 9/35/18 22/38/18 17/42/18
f 5/28/19 19/43/19 21/39/19 11/29/19
f 49/27/20 1/41/20 17/42/20 57/44/20
f 50/16/21 6/15/21 20/45/21 58/46/21
f 14/14/22 23/40/22 20/45/22 6/15/22
f 13/36/23 2/47/23 18/48/23 24/37/23
f 22/38/24 24/37/24 30/49/24 29/50/24
f 21/39/25 31/51/25 32/52/25 23/40/25
f 17/42/26 22/38/26 29/50/26 25/53/26
f 19/43/27 27/54/27 31/51/27 21/39/27
f 57/44/28 17/42/28 25/53/28 59/55/28
f 58/46/29 20/45/29 28/56/29 60/57/29
f 23/40/30 32/52/30 28/56/30 20/45/30
f 24/37/31 18/48/31 26/58/31 30/49/31
f 29/50/24 30/49/24 38/59/24 37/60/24
f 31/51/32 39/61/32 40/62/32 32/52/32
f 25/53/33 29/50/33 37/60/33 33/63/33
f 27/54/34 35/64/34 39/61/34 31/51/34
f 59/55/35 25/53/35 33/63/35 61/65/35
f 60/57/36 28/56/36 36/66/36 62/67/36
f 32/52/37 40/62/37 36/66/37 28/56/37
f 30/49/38 26/58/38 34/68/38 38/59/38
f 37/60/24 38/59/24 46/5/24 45/33/24
f 39/61/39 47/32/39 48/9/39 40/62/39
f 33/63/40 37/60/40 45/33/40 41/24/40
f 35/64/41 43/31/41 47/32/41 39/61/41
f 61/65/42 33/63/42 41/24/42 63/23/42
f 62/67/43 36/66/43 44/12/43 64/17/43
f 40/62/44 48/9/44 44/12/44 36/66/44
f 38/59/45 34/68/45 42/6/45 46/5/45
f 34/68/46 62/67/46 64/17/46 42/6/46
f 26/58/47 60/57/47 62/67/47 34/68/47
f 27/54/48 59/55/48 61/65/48 35/64/48
f 18/48/49 58/46/49 60/57/49 26/58/49
f 19/43/50 57/44/50 59/55/50 27/54/50
f 2/47/51 50/16/51 58/46/51 18/48/51
f 5/28/52 49/27/52 57/44/52 19/43/52
f 9/35/53 54/30/53 56/13/53 13/36/53
f 3/7/54 51/18/54 55/26/54 15/8/54
f 1/41/55 49/27/55 54/30/55 9/35/55
f 15/8/56 55/26/56 53/19/56 10/34/56
f 43/31/57 63/23/57 52/22/57 8/21/57
f 10/34/58 53/19/58 52/22/58 4/25/58
f 42/6/59 64/17/59 51/18/59 3/7/59
f 13/36/60 56/13/60 50/16/60 2/47/60
